<?xml version="1.0" encoding="UTF-8"?>
<svg xmlns="http://www.w3.org/2000/svg" viewBox="0 0 500 500" width="500" height="500" fill="none">
  <g stroke="#c8a84e" stroke-width="0.6" stroke-opacity="0.4">
    <line x1="250.00" y1="250.00" x2="250.00" y2="170.00"/>
    <line x1="250.00" y1="250.00" x2="319.28" y2="210.00"/>
    <line x1="250.00" y1="250.00" x2="319.28" y2="290.00"/>
    <line x1="250.00" y1="250.00" x2="250.00" y2="330.00"/>
    <line x1="250.00" y1="250.00" x2="180.72" y2="290.00"/>
    <line x1="250.00" y1="250.00" x2="180.72" y2="210.00"/>
    <line x1="250.00" y1="250.00" x2="250.00" y2="90.00"/>
    <line x1="250.00" y1="250.00" x2="388.56" y2="170.00"/>
    <line x1="250.00" y1="250.00" x2="388.56" y2="330.00"/>
    <line x1="250.00" y1="250.00" x2="250.00" y2="410.00"/>
    <line x1="250.00" y1="250.00" x2="111.44" y2="330.00"/>
    <line x1="250.00" y1="250.00" x2="111.44" y2="170.00"/>
    <line x1="250.00" y1="170.00" x2="319.28" y2="210.00"/>
    <line x1="250.00" y1="170.00" x2="319.28" y2="290.00"/>
    <line x1="250.00" y1="170.00" x2="250.00" y2="330.00"/>
    <line x1="250.00" y1="170.00" x2="180.72" y2="290.00"/>
    <line x1="250.00" y1="170.00" x2="180.72" y2="210.00"/>
    <line x1="250.00" y1="170.00" x2="250.00" y2="90.00"/>
    <line x1="250.00" y1="170.00" x2="388.56" y2="170.00"/>
    <line x1="250.00" y1="170.00" x2="388.56" y2="330.00"/>
    <line x1="250.00" y1="170.00" x2="250.00" y2="410.00"/>
    <line x1="250.00" y1="170.00" x2="111.44" y2="330.00"/>
    <line x1="250.00" y1="170.00" x2="111.44" y2="170.00"/>
    <line x1="319.28" y1="210.00" x2="319.28" y2="290.00"/>
    <line x1="319.28" y1="210.00" x2="250.00" y2="330.00"/>
    <line x1="319.28" y1="210.00" x2="180.72" y2="290.00"/>
    <line x1="319.28" y1="210.00" x2="180.72" y2="210.00"/>
    <line x1="319.28" y1="210.00" x2="250.00" y2="90.00"/>
    <line x1="319.28" y1="210.00" x2="388.56" y2="170.00"/>
    <line x1="319.28" y1="210.00" x2="388.56" y2="330.00"/>
    <line x1="319.28" y1="210.00" x2="250.00" y2="410.00"/>
    <line x1="319.28" y1="210.00" x2="111.44" y2="330.00"/>
    <line x1="319.28" y1="210.00" x2="111.44" y2="170.00"/>
    <line x1="319.28" y1="290.00" x2="250.00" y2="330.00"/>
    <line x1="319.28" y1="290.00" x2="180.72" y2="290.00"/>
    <line x1="319.28" y1="290.00" x2="180.72" y2="210.00"/>
    <line x1="319.28" y1="290.00" x2="250.00" y2="90.00"/>
    <line x1="319.28" y1="290.00" x2="388.56" y2="170.00"/>
    <line x1="319.28" y1="290.00" x2="388.56" y2="330.00"/>
    <line x1="319.28" y1="290.00" x2="250.00" y2="410.00"/>
    <line x1="319.28" y1="290.00" x2="111.44" y2="330.00"/>
    <line x1="319.28" y1="290.00" x2="111.44" y2="170.00"/>
    <line x1="250.00" y1="330.00" x2="180.72" y2="290.00"/>
    <line x1="250.00" y1="330.00" x2="180.72" y2="210.00"/>
    <line x1="250.00" y1="330.00" x2="250.00" y2="90.00"/>
    <line x1="250.00" y1="330.00" x2="388.56" y2="170.00"/>
    <line x1="250.00" y1="330.00" x2="388.56" y2="330.00"/>
    <line x1="250.00" y1="330.00" x2="250.00" y2="410.00"/>
    <line x1="250.00" y1="330.00" x2="111.44" y2="330.00"/>
    <line x1="250.00" y1="330.00" x2="111.44" y2="170.00"/>
    <line x1="180.72" y1="290.00" x2="180.72" y2="210.00"/>
    <line x1="180.72" y1="290.00" x2="250.00" y2="90.00"/>
    <line x1="180.72" y1="290.00" x2="388.56" y2="170.00"/>
    <line x1="180.72" y1="290.00" x2="388.56" y2="330.00"/>
    <line x1="180.72" y1="290.00" x2="250.00" y2="410.00"/>
    <line x1="180.72" y1="290.00" x2="111.44" y2="330.00"/>
    <line x1="180.72" y1="290.00" x2="111.44" y2="170.00"/>
    <line x1="180.72" y1="210.00" x2="250.00" y2="90.00"/>
    <line x1="180.72" y1="210.00" x2="388.56" y2="170.00"/>
    <line x1="180.72" y1="210.00" x2="388.56" y2="330.00"/>
    <line x1="180.72" y1="210.00" x2="250.00" y2="410.00"/>
    <line x1="180.72" y1="210.00" x2="111.44" y2="330.00"/>
    <line x1="180.72" y1="210.00" x2="111.44" y2="170.00"/>
    <line x1="250.00" y1="90.00" x2="388.56" y2="170.00"/>
    <line x1="250.00" y1="90.00" x2="388.56" y2="330.00"/>
    <line x1="250.00" y1="90.00" x2="250.00" y2="410.00"/>
    <line x1="250.00" y1="90.00" x2="111.44" y2="330.00"/>
    <line x1="250.00" y1="90.00" x2="111.44" y2="170.00"/>
    <line x1="388.56" y1="170.00" x2="388.56" y2="330.00"/>
    <line x1="388.56" y1="170.00" x2="250.00" y2="410.00"/>
    <line x1="388.56" y1="170.00" x2="111.44" y2="330.00"/>
    <line x1="388.56" y1="170.00" x2="111.44" y2="170.00"/>
    <line x1="388.56" y1="330.00" x2="250.00" y2="410.00"/>
    <line x1="388.56" y1="330.00" x2="111.44" y2="330.00"/>
    <line x1="388.56" y1="330.00" x2="111.44" y2="170.00"/>
    <line x1="250.00" y1="410.00" x2="111.44" y2="330.00"/>
    <line x1="250.00" y1="410.00" x2="111.44" y2="170.00"/>
    <line x1="111.44" y1="330.00" x2="111.44" y2="170.00"/>
  </g>
  <g stroke="#c8a84e" stroke-width="0.8" stroke-opacity="0.7">
    <circle cx="250.00" cy="250.00" r="40.00"/>
    <circle cx="250.00" cy="170.00" r="40.00"/>
    <circle cx="319.28" cy="210.00" r="40.00"/>
    <circle cx="319.28" cy="290.00" r="40.00"/>
    <circle cx="250.00" cy="330.00" r="40.00"/>
    <circle cx="180.72" cy="290.00" r="40.00"/>
    <circle cx="180.72" cy="210.00" r="40.00"/>
    <circle cx="250.00" cy="90.00" r="40.00"/>
    <circle cx="388.56" cy="170.00" r="40.00"/>
    <circle cx="388.56" cy="330.00" r="40.00"/>
    <circle cx="250.00" cy="410.00" r="40.00"/>
    <circle cx="111.44" cy="330.00" r="40.00"/>
    <circle cx="111.44" cy="170.00" r="40.00"/>
  </g>
  <circle cx="250.0" cy="250.0" r="210.00" stroke="#c8a84e" stroke-width="0.5" stroke-opacity="0.3"/>
</svg>
