<?xml version="1.0" encoding="UTF-8"?>
<svg xmlns="http://www.w3.org/2000/svg" viewBox="0 0 800 100" width="800" height="100" fill="none">
  <g stroke="#f2ca50" stroke-opacity="0.3">
    <line x1="40" y1="50.0" x2="340.0" y2="50.0" stroke-width="0.5"/>
    <line x1="460.0" y1="50.0" x2="760" y2="50.0" stroke-width="0.5"/>
  </g>
  <g stroke="#f2ca50" stroke-opacity="0.15">
    <line x1="100" y1="42.0" x2="355.0" y2="42.0" stroke-width="0.3"/>
    <line x1="445.0" y1="42.0" x2="700" y2="42.0" stroke-width="0.3"/>
    <line x1="100" y1="58.0" x2="355.0" y2="58.0" stroke-width="0.3"/>
    <line x1="445.0" y1="58.0" x2="700" y2="58.0" stroke-width="0.3"/>
  </g>
  <polygon points="400.0,28.0 422.0,50.0 400.0,72.0 378.0,50.0" stroke="#f2ca50" stroke-width="0.8" stroke-opacity="0.5"/>
  <polygon points="400.0,38.0 412.0,50.0 400.0,62.0 388.0,50.0" stroke="#f2ca50" stroke-width="0.6" stroke-opacity="0.4"/>
  <circle cx="400.0" cy="50.0" r="4" stroke="#f2ca50" stroke-width="1.0" stroke-opacity="0.6"/>
  <circle cx="362.0" cy="50.0" r="2.5" stroke="#f2ca50" stroke-width="0.6" stroke-opacity="0.4"/>
  <circle cx="438.0" cy="50.0" r="2.5" stroke="#f2ca50" stroke-width="0.6" stroke-opacity="0.4"/>
  <circle cx="320.0" cy="50.0" r="1.5" stroke="#f2ca50" stroke-width="0.5" stroke-opacity="0.25"/>
  <circle cx="280.0" cy="50.0" r="1.5" stroke="#f2ca50" stroke-width="0.5" stroke-opacity="0.25"/>
  <circle cx="240.0" cy="50.0" r="1.5" stroke="#f2ca50" stroke-width="0.5" stroke-opacity="0.25"/>
  <circle cx="480.0" cy="50.0" r="1.5" stroke="#f2ca50" stroke-width="0.5" stroke-opacity="0.25"/>
  <circle cx="520.0" cy="50.0" r="1.5" stroke="#f2ca50" stroke-width="0.5" stroke-opacity="0.25"/>
  <circle cx="560.0" cy="50.0" r="1.5" stroke="#f2ca50" stroke-width="0.5" stroke-opacity="0.25"/>
</svg>
