<?xml version="1.0" encoding="UTF-8"?>
<svg xmlns="http://www.w3.org/2000/svg" viewBox="0 0 500 500" width="500" height="500" fill="none">
  <circle cx="250.0" cy="250.0" r="200" stroke="#f2ca50" stroke-width="0.8" stroke-opacity="0.4"/>
  <circle cx="250.0" cy="250.0" r="184.0" stroke="#f2ca50" stroke-width="0.5" stroke-opacity="0.3"/>
  <g stroke="#f2ca50" stroke-width="0.9" stroke-opacity="0.7" stroke-linejoin="round">
    <polygon points="250.0,99.1 110.6,361.5 389.4,361.5"/>
    <polygon points="250.0,131.9 135.2,325.4 364.8,325.4"/>
    <polygon points="250.0,168.0 164.7,286.1 335.3,286.1"/>
    <polygon points="250.0,207.4 200.8,241.8 299.2,241.8"/>
  </g>
  <g stroke="#f2ca50" stroke-width="0.9" stroke-opacity="0.7" stroke-linejoin="round">
    <polygon points="250.0,400.9 110.6,138.5 389.4,138.5"/>
    <polygon points="250.0,368.1 135.2,174.6 364.8,174.6"/>
    <polygon points="250.0,332.0 164.7,213.9 335.3,213.9"/>
    <polygon points="250.0,292.6 200.8,258.2 299.2,258.2"/>
    <polygon points="250.0,263.1 230.3,236.9 269.7,236.9"/>
  </g>
  <circle cx="250.0" cy="250.0" r="3" stroke="#f2ca50" stroke-width="1.2"/>
  <g stroke="#f2ca50" stroke-width="0.6" stroke-opacity="0.35">
    <rect x="25.0" y="25.0" width="450" height="450"/>
    <rect x="15.0" y="15.0" width="470" height="470"/>
  </g>
</svg>
